# xmcd CD database file
#
# Track frame offsets:
#	150
#	27112
#	46886
#	62121
#	82211
#	111384
#	134080
#	157498
#	178794
#	222908
#	236055
#	252742
#	263132
#	300713
#
# Disc length: 4383 seconds
#
# Revision: 0
# Processed by: cddbd v1.4PL0 Copyright (c) Steve Scherf et al.
# Submitted via: CDex 1.51
#
DISCID=dd111d0e
DTITLE=Jules Deelder - Deelder Draait Door
DYEAR=2003
DGENRE=Jazz
TTITLE0=Something Different - Mangione Brothers Sextet
TTITLE1=For Mods Only - Chico Hamilton Quintet
TTITLE2=Bloomdido - Charlie Parker Quintet
TTITLE3=Jilly's Honey - Al Grey and His Orchestra
TTITLE4=Cheesecake - Dexter Gordon Quartet
TTITLE5=Off The Wall - Budd Johnson Quintet
TTITLE6=Mau Mau - Art Farmer Septet
TTITLE7=Matilda - Jimmy Forrest Quintet
TTITLE8=Night in Tunesia - Yusef Lateef Quintet
TTITLE9=Spanish Boots - Illinois Jacquet and His Orchestra
TTITLE10=Wade in the Water - Johnny Griffin Orchestra
TTITLE11=Brazilian Soft Shoe - Machito and His Afro-Cuban Jazz Ensemble
TTITLE12=Hi-Heel Sneakers - Blue Mitchell Quintet
TTITLE13=Flying at the Olympia - Lionel Hampton and His Orchestra
EXTD=YEAR: 2003
EXTT0=
EXTT1=
EXTT2=
EXTT3=
EXTT4=
EXTT5=
EXTT6=
EXTT7=
EXTT8=
EXTT9=
EXTT10=
EXTT11=
EXTT12=
EXTT13=
PLAYORDER=
